<?xml version="1.0" encoding="utf-8"?>
<!-- Generator: Adobe Illustrator 27.3.1, SVG Export Plug-In . SVG Version: 6.00 Build 0)  -->
<svg version="1.1" id="Capa_1" xmlns="http://www.w3.org/2000/svg" xmlns:xlink="http://www.w3.org/1999/xlink" x="0px" y="0px"
	 viewBox="0 0 800 800" style="enable-background:new 0 0 800 800;" xml:space="preserve">
<style type="text/css">
	.st0{fill:#5B0534;}
	.st1{fill:#012479;}
	.st2{fill:#4E052D;}
	.st3{fill:#F0C419;}
	.st4{font-family:'JosefinSans-Bold';}
	.st5{font-size:109.4092px;}
	.st6{font-size:150.3285px;}
</style>
<g>
	<circle class="st0" cx="400" cy="400" r="400"/>
	<path class="st1" d="M400,200c35.2,0,68.8,6.7,100,18.4V12.6C468,4.4,434.5,0,400,0s-68,4.4-100,12.6v205.8
		C331.2,206.7,364.8,200,400,200z"/>
	<path class="st1" d="M400,600c-35.2,0-68.8-6.7-100-18.4v205.8c32,8.2,65.5,12.6,100,12.6s68-4.4,100-12.6V581.6
		C468.8,593.3,435.2,600,400,600z"/>
	<path class="st1" d="M600,400c0,35.2-6.7,68.8-18.4,100h205.8c8.2-32,12.6-65.5,12.6-100s-4.4-68-12.6-100H581.6
		C593.3,331.2,600,364.8,600,400z"/>
	<path class="st1" d="M200,400c0-35.2,6.7-68.8,18.4-100H12.6C4.4,332,0,365.5,0,400s4.4,68,12.6,100h205.8
		C206.7,468.8,200,435.2,200,400z"/>
	<path class="st2" d="M400,700c-165.4,0-300-134.6-300-300s134.6-300,300-300s300,134.6,300,300S565.4,700,400,700z"/>
	<path class="st3" d="M298.3,282.4c4.9-6.5,8.6-14.1,10.4-22.6c6.5-30.9-13.4-61.2-44.2-67.6s-61.2,13.4-67.6,44.2
		c-1.8,8.5-1.4,16.9,0.5,24.9c-30.3-5.5-59.7,14-66.1,44.4c-6.5,30.9,13.4,61.2,44.2,67.6c13.5,2.8,26.8,0.4,38.2-5.6
		c-2.5,11.1-8.4,29.1-22.5,39.7c-11.5,8.6-27,10.9-46.1,6.9c-7.7-1.6-15.3,3.3-16.9,11.1c-1.6,7.7,3.3,15.3,11.1,16.9
		c27.6,5.8,50.9,1.7,69.3-12.2c20.9-15.8,29.5-40.3,33-55.8c8,9.5,18.9,16.6,31.9,19.4c30.9,6.5,61.2-13.4,67.6-44.2
		C347.4,319.2,328.3,289.6,298.3,282.4z"/>
</g>
<text transform="matrix(1 0 0 1 329.0352 253.0439)" class="st3 st4 st5">Draw </text>
<text transform="matrix(1 0 0 1 400 422.8799)" class="st3 st4 st5">New </text>
<text transform="matrix(1 0 0 1 191.6467 589.9736)" class="st3 st4 st6">Cards</text>
</svg>
