<?xml version="1.0" encoding="UTF-8"?>
<svg id="Capa_1" data-name="Capa 1" xmlns="http://www.w3.org/2000/svg" viewBox="0 0 1242.89 335.43">
  <defs>
    <style>
      .cls-1 {
        fill: #f0c419;
      }

      .cls-2 {
        fill: #4e052d;
      }
    </style>
  </defs>
  <g>
    <path class="cls-2" d="m182.99,240.19c-.73,1.97-2.22,4.31-4.46,7.04-2.24,2.74-4.95,5.56-8.13,8.49-3.18,2.93-6.52,5.7-10.02,8.32-3.5,2.62-6.96,4.8-10.39,6.54-9.07,4.62-17.83,7.66-26.38,9.11-8.55,1.45-16.6,1.47-24.21.02-7.6-1.45-14.52-4.31-20.74-8.64-6.21-4.32-11.43-9.96-15.57-16.97-5.44-9.19-8.58-18.12-9.31-26.82-.73-8.69.45-16.96,3.59-24.76,3.13-7.79,7.9-14.9,14.29-21.24,6.38-6.34,13.82-11.7,22.24-16,7.97-4.07,15.67-6.98,23.05-8.73,7.38-1.75,13.9-2.58,19.56-2.53.35,7.71.76,15.4,1.22,23.08-2.44,0-5.55.3-9.33.95-3.78.66-7.53,1.52-11.26,2.6-3.73,1.08-6.92,2.3-9.56,3.64-6.61,3.35-12.06,7.09-16.34,11.15-4.28,4.06-7.36,8.43-9.24,13.07-1.88,4.64-2.52,9.5-1.94,14.56.58,5.06,2.41,10.31,5.45,15.75,2.68,4.8,6.04,8.59,10.03,11.39,3.99,2.8,8.39,4.63,13.2,5.5,4.81.88,9.85.8,15.16-.21,5.31-1.01,10.73-2.93,16.29-5.76,3.19-1.62,6.03-3.31,8.51-5.07,2.48-1.76,4.42-3.57,5.83-5.43-2.06-4.23-4.12-8.46-6.18-12.69-6.69,3.26-13.36,6.6-20,10-3.38-6.59-6.76-13.17-10.14-19.76,14.62-7.5,29.36-14.66,44.22-21.47,6.85,14.95,13.7,29.9,20.54,44.84Z"/>
    <path class="cls-2" d="m239.13,231.05c-6.35,2.51-12.56,3.65-18.69,3.4-6.14-.25-11.78-2.17-16.95-5.81-5.17-3.64-9.46-9.26-12.81-16.92-3.13-7.17-4.25-14.07-3.25-20.72,1-6.65,3.6-12.56,7.81-17.7,4.21-5.13,9.41-8.94,15.55-11.38,7.25-2.88,13.17-3.92,17.72-3.21,4.55.71,8.52,1.91,11.91,3.59-.02.97-.04,1.93-.07,2.9-.45-3.44-.9-6.88-1.34-10.33,7.28-2.67,14.58-5.27,21.9-7.79,7.51,21.85,15.02,43.7,22.53,65.54-7.39,2.54-14.76,5.17-22.11,7.88-1.74-4.71-3.48-9.42-5.22-14.14,1.13,1.27,2.27,2.54,3.4,3.82-.21.08-.64.88-1.28,2.41-.64,1.53-1.7,3.45-3.18,5.75-1.48,2.31-3.49,4.59-6.04,6.87-2.55,2.28-5.84,4.21-9.9,5.82Zm-.3-19.31c2.65-1.03,4.9-2.32,6.74-3.87,1.85-1.55,3.3-3.34,4.37-5.38,1.07-2.03,1.79-4.36,2.17-6.98-1.96-5.31-3.92-10.61-5.88-15.92-1.68-1.86-3.69-3.23-6.01-4.11-2.33-.88-4.87-1.28-7.61-1.2-2.74.08-5.6.7-8.57,1.85-3.3,1.28-6.04,3.25-8.22,5.89-2.18,2.64-3.54,5.62-4.09,8.92-.55,3.31-.11,6.67,1.29,10.1,1.41,3.43,3.53,6.15,6.35,8.2,2.82,2.05,5.95,3.29,9.38,3.74,3.44.45,6.79.04,10.08-1.24Z"/>
    <path class="cls-2" d="m306.94,132.37c1.78,3.72,3.56,7.44,5.32,11.16-.2-.27-.4-.54-.61-.81,1.61-5.32,4.3-9.88,8.04-13.63,3.74-3.75,8.79-6.5,15.11-8.19,4.13-1.1,7.92-1.54,11.34-1.33,3.42.22,6.47,1.06,9.15,2.52,2.67,1.46,4.8,3.69,6.37,6.68-.27.12-.54.24-.82.36,2.15-4.99,5.21-9.31,9.16-12.95,3.95-3.63,8.43-6.01,13.41-7.1,7.53-1.65,13.94-1.01,19.15,1.88,5.21,2.89,8.44,7.35,9.73,13.34,3.34,17.02,6.67,34.03,10.01,51.05-7.55,1.48-15.09,3.04-22.62,4.69-3.05-13.94-6.11-27.89-9.16-41.83-.77-2.97-1.81-5.31-3.14-7.02-1.33-1.71-3.67-2.3-7.01-1.76-3.87.88-6.86,2.85-8.94,5.89-2.09,3.05-3.32,6.61-3.69,10.67-.38,4.07-.07,8.1.91,12.1,2.24,9.19,4.49,18.39,6.73,27.58-7.55,1.84-15.08,3.77-22.59,5.78-3.69-13.79-7.39-27.58-11.08-41.36-.91-2.93-2.14-5.2-3.72-6.8-1.58-1.6-4.03-2.06-7.36-1.36-3.72,1.03-6.51,3.11-8.35,6.22-1.84,3.11-2.86,6.68-3.07,10.71-.21,4.03.26,7.97,1.39,11.82,2.7,9.18,5.39,18.36,8.09,27.54-7.48,2.2-14.93,4.48-22.37,6.84-7.01-22.02-14.01-44.03-21.02-66.05,7.19-2.29,14.4-4.5,21.63-6.64Z"/>
    <path class="cls-2" d="m481.3,167.47c-8.74,1.2-16.35.76-22.93-1.41-6.57-2.16-11.95-5.7-16.11-10.67-4.17-4.96-6.92-11.02-8.2-18.21-1.22-6.87-.41-13.41,2.54-19.6,2.94-6.19,7.47-11.49,13.58-15.82,6.11-4.33,13.3-7.09,21.5-8.21,11.01-1.5,20.44.28,28.13,5.21,7.69,4.94,13.07,12.78,16.19,23.41-18.8,7.61-37.26,15.71-55.35,24.27-2.34-3.7-4.7-7.4-7.08-11.09,13.18-6.54,26.55-12.84,40.13-18.88-1.58.88-3.16,1.76-4.73,2.65-1.26-2.61-3.19-4.8-5.81-6.54-2.62-1.74-6.31-2.3-11.03-1.65-3.57.5-6.61,1.71-9.08,3.62-2.48,1.92-4.21,4.37-5.22,7.36-1,2.99-1.2,6.36-.62,10.12.67,4.29,2.07,7.73,4.19,10.35,2.12,2.62,4.73,4.44,7.84,5.48,3.11,1.04,6.43,1.31,9.99.83,2.56-.35,4.98-1.1,7.27-2.25,2.29-1.15,4.52-2.55,6.7-4.2,4.14,5.03,8.23,10.09,12.26,15.16-3.62,2.54-7.57,4.71-11.85,6.52-4.28,1.81-8.38,2.99-12.31,3.53Z"/>
    <path class="cls-2" d="m583.42,121.07c-.26-7.08,1.3-13.49,4.77-19.21,3.47-5.72,8.52-10.28,15.16-13.63,6.63-3.34,14.35-5.04,23.08-5.01,8.84.02,16.5,1.76,22.88,5.13,6.38,3.38,11.18,7.95,14.39,13.68,3.21,5.73,4.64,12.14,4.35,19.22-.29,7.08-2.24,13.37-5.74,18.9-3.51,5.53-8.35,9.84-14.5,12.97-6.16,3.13-13.43,4.66-21.9,4.64-7.92-.02-15-1.43-21.29-4.28-6.3-2.85-11.32-6.99-15.08-12.47-3.76-5.49-5.82-12.12-6.11-19.94Zm24.11-.46c.05,3.6.9,6.83,2.52,9.72,1.62,2.89,3.78,5.17,6.48,6.84,2.7,1.68,5.73,2.51,9.09,2.52,3.69,0,6.89-.81,9.6-2.47,2.71-1.66,4.83-3.93,6.35-6.81,1.52-2.88,2.32-6.12,2.39-9.71.07-3.7-.61-6.99-2.06-9.87-1.45-2.88-3.55-5.19-6.31-6.91-2.76-1.72-6.06-2.6-9.89-2.6-3.48,0-6.61.85-9.38,2.56-2.77,1.71-4.94,4.01-6.51,6.88-1.58,2.87-2.33,6.17-2.27,9.86Z"/>
    <path class="cls-2" d="m691.69,158.08c1.09-16.62,2.17-33.23,3.26-49.85-4.27-.28-8.54-.53-12.81-.76.35-6.55.7-13.09,1.05-19.64,4.35.23,8.69.49,13.04.78.52-8.02,1.05-16.04,1.57-24.06.59-9.07,4.06-16.3,10.53-21.61,6.47-5.3,15.56-7.49,27.12-6.38,3.44.33,7.24,1.16,11.38,2.51,4.14,1.34,7.68,3.21,10.63,5.57-4.22,4.89-8.39,9.8-12.51,14.73-1.06-1.49-2.38-2.56-3.97-3.2-1.58-.64-3.1-1.03-4.56-1.18-3.63-.36-6.7.42-9.18,2.32-2.49,1.9-3.92,5.17-4.33,9.8-.68,7.79-1.37,15.59-2.05,23.38,7.74.68,15.47,1.44,23.2,2.28-.71,6.52-1.42,13.03-2.13,19.55-7.59-.82-15.19-1.57-22.79-2.24-1.46,16.59-2.91,33.18-4.37,49.77-7.7-.67-15.4-1.26-23.1-1.77Z"/>
    <path class="cls-2" d="m823.09,57.19c10.29,1.79,20.56,3.73,30.81,5.8,4.62,25.85,8.63,51.71,12.02,77.54-1.18-.81-2.36-1.62-3.54-2.43,11.68-15.85,23.72-31.54,36.13-47.04,1.42,11.19,2.73,22.37,3.92,33.55-18.16,20.15-35.57,40.7-52.22,61.63-7.11-43.03-16.15-86.09-27.12-129.06Zm66.72,13.66c8.64,2.03,17.25,4.17,25.85,6.4,4.86,25.68,9.04,51.35,12.52,76.97-1.39-.62-2.78-1.25-4.18-1.87,13.98-20.36,28.44-40.49,43.35-60.39,9.22,2.86,18.41,5.83,27.58,8.93-29.58,32.59-57.53,66.15-83.79,100.57-5.13-43.45-12.23-87.04-21.34-130.62Z"/>
    <path class="cls-2" d="m948.96,207.79c30.19-32.67,62.3-64.19,96.27-94.4.47.18.93.36,1.4.54,4.68,45.22,7.2,90.2,7.58,134.76-8.62-3.9-17.29-7.68-25.99-11.33.03-30.84-.89-61.85-2.79-93,7.3-1.3,14.64-2.52,22.02-3.67-26.42,24.17-51.7,49.13-75.82,74.81-7.53-2.66-15.09-5.23-22.67-7.72Zm50.51-27.09c12.07,4.45,24.08,9.11,36.02,14,.31,7.1.57,14.19.78,21.27-16.78-7.03-33.7-13.62-50.73-19.75,4.6-5.2,9.25-10.37,13.94-15.52Z"/>
    <path class="cls-2" d="m1158.24,169.45c7.72,4,14.14,8.48,19.24,13.36,5.1,4.88,8.79,9.97,11.09,15.21,2.3,5.24,3.26,10.55,2.91,15.89-.35,5.35-2.06,10.62-5.08,15.84-2.39,4.12-5.49,7.82-9.28,11.13-3.79,3.31-8.24,5.75-13.34,7.35-5.1,1.61-10.8,2.01-17.12,1.25-6.33-.76-13.3-3.19-20.99-7.22-5.41-2.83-10.84-5.62-16.29-8.36-5.55,11.06-11.1,22.11-16.66,33.17-7.33-3.68-14.7-7.28-22.1-10.78,16.64-35.17,33.28-70.35,49.92-105.52,12.65,5.99,25.21,12.21,37.69,18.68Zm-22.43,53.05c3.5,1.83,6.69,2.87,9.57,3.09,2.88.22,5.41-.09,7.59-.95,2.18-.86,4.04-1.99,5.56-3.38,1.52-1.4,2.69-2.83,3.5-4.32.61-1.11,1.19-2.63,1.76-4.55.56-1.92.73-4.09.5-6.5-.23-2.41-1.24-4.88-3.05-7.41-1.8-2.52-4.79-4.9-8.95-7.08-5.7-2.98-11.41-5.92-17.15-8.8-5.27,10.49-10.53,20.98-15.8,31.46,5.5,2.77,10.99,5.58,16.46,8.44Zm14.67,24.09c2.2,18.36,3.95,36.66,5.25,54.88-8.31-4.91-16.67-9.7-25.08-14.37-2.07-18.08-4.6-36.23-7.58-54.42,9.18,4.5,18.32,9.13,27.4,13.91Z"/>
  </g>
  <g>
    <path class="cls-1" d="m182.99,231.19c-.73,1.97-2.22,4.31-4.46,7.04-2.24,2.74-4.95,5.56-8.13,8.49-3.18,2.93-6.52,5.7-10.02,8.32-3.5,2.62-6.96,4.8-10.39,6.54-9.07,4.62-17.83,7.66-26.38,9.11-8.55,1.45-16.6,1.47-24.21.02-7.6-1.45-14.52-4.31-20.74-8.64-6.21-4.32-11.43-9.96-15.57-16.97-5.44-9.19-8.58-18.12-9.31-26.82-.73-8.69.45-16.96,3.59-24.76,3.13-7.79,7.9-14.9,14.29-21.24,6.38-6.34,13.82-11.7,22.24-16,7.97-4.07,15.67-6.98,23.05-8.73,7.38-1.75,13.9-2.58,19.56-2.53.35,7.71.76,15.4,1.22,23.08-2.44,0-5.55.3-9.33.95-3.78.66-7.53,1.52-11.26,2.6-3.73,1.08-6.92,2.3-9.56,3.64-6.61,3.35-12.06,7.09-16.34,11.15-4.28,4.06-7.36,8.43-9.24,13.07-1.88,4.64-2.52,9.5-1.94,14.56.58,5.06,2.41,10.31,5.45,15.75,2.68,4.8,6.04,8.59,10.03,11.39,3.99,2.8,8.39,4.63,13.2,5.5,4.81.88,9.85.8,15.16-.21,5.31-1.01,10.73-2.93,16.29-5.76,3.19-1.62,6.03-3.31,8.51-5.07,2.48-1.76,4.42-3.57,5.83-5.43-2.06-4.23-4.12-8.46-6.18-12.69-6.69,3.26-13.36,6.6-20,10-3.38-6.59-6.76-13.17-10.14-19.76,14.62-7.5,29.36-14.66,44.22-21.47,6.85,14.95,13.7,29.9,20.54,44.84Z"/>
    <path class="cls-1" d="m239.13,222.05c-6.35,2.51-12.56,3.65-18.69,3.4-6.14-.25-11.78-2.17-16.95-5.81-5.17-3.64-9.46-9.26-12.81-16.92-3.13-7.17-4.25-14.07-3.25-20.72,1-6.65,3.6-12.56,7.81-17.7,4.21-5.13,9.41-8.94,15.55-11.38,7.25-2.88,13.17-3.92,17.72-3.21,4.55.71,8.52,1.91,11.91,3.59-.02.97-.04,1.93-.07,2.9-.45-3.44-.9-6.88-1.34-10.33,7.28-2.67,14.58-5.27,21.9-7.79,7.51,21.85,15.02,43.7,22.53,65.54-7.39,2.54-14.76,5.17-22.11,7.88-1.74-4.71-3.48-9.42-5.22-14.14,1.13,1.27,2.27,2.54,3.4,3.82-.21.08-.64.88-1.28,2.41-.64,1.53-1.7,3.45-3.18,5.75-1.48,2.31-3.49,4.59-6.04,6.87-2.55,2.28-5.84,4.21-9.9,5.82Zm-.3-19.31c2.65-1.03,4.9-2.32,6.74-3.87,1.85-1.55,3.3-3.34,4.37-5.38,1.07-2.03,1.79-4.36,2.17-6.98-1.96-5.31-3.92-10.61-5.88-15.92-1.68-1.86-3.69-3.23-6.01-4.11-2.33-.88-4.87-1.28-7.61-1.2-2.74.08-5.6.7-8.57,1.85-3.3,1.28-6.04,3.25-8.22,5.89-2.18,2.64-3.54,5.62-4.09,8.92-.55,3.31-.11,6.67,1.29,10.1,1.41,3.43,3.53,6.15,6.35,8.2,2.82,2.05,5.95,3.29,9.38,3.74,3.44.45,6.79.04,10.08-1.24Z"/>
    <path class="cls-1" d="m306.94,123.37c1.78,3.72,3.56,7.44,5.32,11.16-.2-.27-.4-.54-.61-.81,1.61-5.32,4.3-9.88,8.04-13.63,3.74-3.75,8.79-6.5,15.11-8.19,4.13-1.1,7.92-1.54,11.34-1.33,3.42.22,6.47,1.06,9.15,2.52,2.67,1.46,4.8,3.69,6.37,6.68-.27.12-.54.24-.82.36,2.15-4.99,5.21-9.31,9.16-12.95,3.95-3.63,8.43-6.01,13.41-7.1,7.53-1.65,13.94-1.01,19.15,1.88,5.21,2.89,8.44,7.35,9.73,13.34,3.34,17.02,6.67,34.03,10.01,51.05-7.55,1.48-15.09,3.04-22.62,4.69-3.05-13.94-6.11-27.89-9.16-41.83-.77-2.97-1.81-5.31-3.14-7.02-1.33-1.71-3.67-2.3-7.01-1.76-3.87.88-6.86,2.85-8.94,5.89-2.09,3.05-3.32,6.61-3.69,10.67-.38,4.07-.07,8.1.91,12.1,2.24,9.19,4.49,18.39,6.73,27.58-7.55,1.84-15.08,3.77-22.59,5.78-3.69-13.79-7.39-27.58-11.08-41.36-.91-2.93-2.14-5.2-3.72-6.8-1.58-1.6-4.03-2.06-7.36-1.36-3.72,1.03-6.51,3.11-8.35,6.22-1.84,3.11-2.86,6.68-3.07,10.71-.21,4.03.26,7.97,1.39,11.82,2.7,9.18,5.39,18.36,8.09,27.54-7.48,2.2-14.93,4.48-22.37,6.84-7.01-22.02-14.01-44.03-21.02-66.05,7.19-2.29,14.4-4.5,21.63-6.64Z"/>
    <path class="cls-1" d="m481.3,158.47c-8.74,1.2-16.35.76-22.93-1.41-6.57-2.16-11.95-5.7-16.11-10.67-4.17-4.96-6.92-11.02-8.2-18.21-1.22-6.87-.41-13.41,2.54-19.6,2.94-6.19,7.47-11.49,13.58-15.82,6.11-4.33,13.3-7.09,21.5-8.21,11.01-1.5,20.44.28,28.13,5.21,7.69,4.94,13.07,12.78,16.19,23.41-18.8,7.61-37.26,15.71-55.35,24.27-2.34-3.7-4.7-7.4-7.08-11.09,13.18-6.54,26.55-12.84,40.13-18.88-1.58.88-3.16,1.76-4.73,2.65-1.26-2.61-3.19-4.8-5.81-6.54-2.62-1.74-6.31-2.3-11.03-1.65-3.57.5-6.61,1.71-9.08,3.62-2.48,1.92-4.21,4.37-5.22,7.36-1,2.99-1.2,6.36-.62,10.12.67,4.29,2.07,7.73,4.19,10.35,2.12,2.62,4.73,4.44,7.84,5.48,3.11,1.04,6.43,1.31,9.99.83,2.56-.35,4.98-1.1,7.27-2.25,2.29-1.15,4.52-2.55,6.7-4.2,4.14,5.03,8.23,10.09,12.26,15.16-3.62,2.54-7.57,4.71-11.85,6.52-4.28,1.81-8.38,2.99-12.31,3.53Z"/>
    <path class="cls-1" d="m583.42,112.07c-.26-7.08,1.3-13.49,4.77-19.21,3.47-5.72,8.52-10.28,15.16-13.63,6.63-3.34,14.35-5.04,23.08-5.01,8.84.02,16.5,1.76,22.88,5.13,6.38,3.38,11.18,7.95,14.39,13.68,3.21,5.73,4.64,12.14,4.35,19.22-.29,7.08-2.24,13.37-5.74,18.9-3.51,5.53-8.35,9.84-14.5,12.97-6.16,3.13-13.43,4.66-21.9,4.64-7.92-.02-15-1.43-21.29-4.28-6.3-2.85-11.32-6.99-15.08-12.47-3.76-5.49-5.82-12.12-6.11-19.94Zm24.11-.46c.05,3.6.9,6.83,2.52,9.72,1.62,2.89,3.78,5.17,6.48,6.84,2.7,1.68,5.73,2.51,9.09,2.52,3.69,0,6.89-.81,9.6-2.47,2.71-1.66,4.83-3.93,6.35-6.81,1.52-2.88,2.32-6.12,2.39-9.71.07-3.7-.61-6.99-2.06-9.87-1.45-2.88-3.55-5.19-6.31-6.91-2.76-1.72-6.06-2.6-9.89-2.6-3.48,0-6.61.85-9.38,2.56-2.77,1.71-4.94,4.01-6.51,6.88-1.58,2.87-2.33,6.17-2.27,9.86Z"/>
    <path class="cls-1" d="m691.69,149.08c1.09-16.62,2.17-33.23,3.26-49.85-4.27-.28-8.54-.53-12.81-.76.35-6.55.7-13.09,1.05-19.64,4.35.23,8.69.49,13.04.78.52-8.02,1.05-16.04,1.57-24.06.59-9.07,4.06-16.3,10.53-21.61,6.47-5.3,15.56-7.49,27.12-6.38,3.44.33,7.24,1.16,11.38,2.51,4.14,1.34,7.68,3.21,10.63,5.57-4.22,4.89-8.39,9.8-12.51,14.73-1.06-1.49-2.38-2.56-3.97-3.2-1.58-.64-3.1-1.03-4.56-1.18-3.63-.36-6.7.42-9.18,2.32-2.49,1.9-3.92,5.17-4.33,9.8-.68,7.79-1.37,15.59-2.05,23.38,7.74.68,15.47,1.44,23.2,2.28-.71,6.52-1.42,13.03-2.13,19.55-7.59-.82-15.19-1.57-22.79-2.24-1.46,16.59-2.91,33.18-4.37,49.77-7.7-.67-15.4-1.26-23.1-1.77Z"/>
    <path class="cls-1" d="m823.09,48.19c10.29,1.79,20.56,3.73,30.81,5.8,4.62,25.85,8.63,51.71,12.02,77.54-1.18-.81-2.36-1.62-3.54-2.43,11.68-15.85,23.72-31.54,36.13-47.04,1.42,11.19,2.73,22.37,3.92,33.55-18.16,20.15-35.57,40.7-52.22,61.63-7.11-43.03-16.15-86.09-27.12-129.06Zm66.72,13.66c8.64,2.03,17.25,4.17,25.85,6.4,4.86,25.68,9.04,51.35,12.52,76.97-1.39-.62-2.78-1.25-4.18-1.87,13.98-20.36,28.44-40.49,43.35-60.39,9.22,2.86,18.41,5.83,27.58,8.93-29.58,32.59-57.53,66.15-83.79,100.57-5.13-43.45-12.23-87.04-21.34-130.62Z"/>
    <path class="cls-1" d="m948.96,198.79c30.19-32.67,62.3-64.19,96.27-94.4.47.18.93.36,1.4.54,4.68,45.22,7.2,90.2,7.58,134.76-8.62-3.9-17.29-7.68-25.99-11.33.03-30.84-.89-61.85-2.79-93,7.3-1.3,14.64-2.52,22.02-3.67-26.42,24.17-51.7,49.13-75.82,74.81-7.53-2.66-15.09-5.23-22.67-7.72Zm50.51-27.09c12.07,4.45,24.08,9.11,36.02,14,.31,7.1.57,14.19.78,21.27-16.78-7.03-33.7-13.62-50.73-19.75,4.6-5.2,9.25-10.37,13.94-15.52Z"/>
    <path class="cls-1" d="m1158.24,160.45c7.72,4,14.14,8.48,19.24,13.36,5.1,4.88,8.79,9.97,11.09,15.21,2.3,5.24,3.26,10.55,2.91,15.89-.35,5.35-2.06,10.62-5.08,15.84-2.39,4.12-5.49,7.82-9.28,11.13-3.79,3.31-8.24,5.75-13.34,7.35-5.1,1.61-10.8,2.01-17.12,1.25-6.33-.76-13.3-3.19-20.99-7.22-5.41-2.83-10.84-5.62-16.29-8.36-5.55,11.06-11.1,22.11-16.66,33.17-7.33-3.68-14.7-7.28-22.1-10.78,16.64-35.17,33.28-70.35,49.92-105.52,12.65,5.99,25.21,12.21,37.69,18.68Zm-22.43,53.05c3.5,1.83,6.69,2.87,9.57,3.09,2.88.22,5.41-.09,7.59-.95,2.18-.86,4.04-1.99,5.56-3.38,1.52-1.4,2.69-2.83,3.5-4.32.61-1.11,1.19-2.63,1.76-4.55.56-1.92.73-4.09.5-6.5-.23-2.41-1.24-4.88-3.05-7.41-1.8-2.52-4.79-4.9-8.95-7.08-5.7-2.98-11.41-5.92-17.15-8.8-5.27,10.49-10.53,20.98-15.8,31.46,5.5,2.77,10.99,5.58,16.46,8.44Zm14.67,24.09c2.2,18.36,3.95,36.66,5.25,54.88-8.31-4.91-16.67-9.7-25.08-14.37-2.07-18.08-4.6-36.23-7.58-54.42,9.18,4.5,18.32,9.13,27.4,13.91Z"/>
  </g>
</svg>